HIERARCHY
ROOT Pelvis
{
	OFFSET 0.000000 0.000000 0.000000
	CHANNELS 6 Xposition Yposition Zposition Xrotation Yrotation Zrotation
	JOINT LeftUpLeg_virtual
	{
		OFFSET 0.000000 0.000000 0.000000
		CHANNELS 3 Xrotation Yrotation Zrotation
		JOINT LeftUpLeg
		{
			OFFSET 8.479700 -4.795502 -0.379100
			CHANNELS 3 Xrotation Yrotation Zrotation
			JOINT LeftLeg
			{
				OFFSET 0.024144 -32.555107 0.112900
				CHANNELS 3 Xrotation Yrotation Zrotation
				JOINT LeftFoot
				{
					OFFSET -0.024144 -32.638630 -3.012600
					CHANNELS 3 Xrotation Yrotation Zrotation
					JOINT LeftToeBase
					{
						OFFSET 0.970200 -13.225400 11.864200
						CHANNELS 3 Xrotation Yrotation Zrotation
						End Site
						{
							OFFSET 0 0 0
						}
					}
				}
			}
		}
	}
	JOINT RightUpLeg_virtual
	{
		OFFSET 0.000000 0.000000 0.000000
		CHANNELS 3 Xrotation Yrotation Zrotation
		JOINT RightUpLeg
		{
			OFFSET -8.479700 -4.795502 -0.379100
			CHANNELS 3 Xrotation Yrotation Zrotation
			JOINT RightLeg
			{
				OFFSET -0.023144 -32.555092 0.112900
				CHANNELS 3 Xrotation Yrotation Zrotation
				JOINT RightFoot
				{
					OFFSET 0.023144 -32.638641 -3.012700
					CHANNELS 3 Xrotation Yrotation Zrotation
					JOINT RightToeBase
					{
						OFFSET -0.970200 -13.225400 11.864200
						CHANNELS 3 Xrotation Yrotation Zrotation
						End Site
						{
							OFFSET 0 0 0
						}
					}
				}
			}
		}
	}
	JOINT Hips_virtual
	{
		OFFSET 0.000000 0.000000 0.000000
		CHANNELS 3 Xrotation Yrotation Zrotation
		JOINT Hips
		{
			OFFSET -0.000000 -0.000000 -0.000000
			CHANNELS 3 Xrotation Yrotation Zrotation
			JOINT Spine
			{
				OFFSET 0.000000 7.722000 1.166200
				CHANNELS 3 Xrotation Yrotation Zrotation
				JOINT Spine1
				{
					OFFSET 0.000000 12.024101 0.248800
					CHANNELS 3 Xrotation Yrotation Zrotation
					JOINT Spine2
					{
						OFFSET 0.000000 11.502998 -0.491200
						CHANNELS 3 Xrotation Yrotation Zrotation
						JOINT Neck_virtual
						{
							OFFSET 0.000000 0.000000 0.000000
							CHANNELS 3 Xrotation Yrotation Zrotation
							JOINT Neck
							{
								OFFSET 0.000000 18.430702 -3.123100
								CHANNELS 3 Xrotation Yrotation Zrotation
								JOINT Head
								{
									OFFSET 0.000000 9.051102 1.034000
									CHANNELS 3 Xrotation Yrotation Zrotation
									End Site
									{
										OFFSET 0 0 0
									}
								}
							}
						}
						JOINT LeftShoulder_virtual
						{
							OFFSET 0.000000 0.000000 0.000000
							CHANNELS 3 Xrotation Yrotation Zrotation
							JOINT LeftShoulder
							{
								OFFSET 6.197800 13.665199 -4.064700
								CHANNELS 3 Xrotation Yrotation Zrotation
								JOINT LeftArm
								{
									OFFSET 7.778100 -0.187103 -1.709300
									CHANNELS 3 Xrotation Yrotation Zrotation
									JOINT LeftForeArm
									{
										OFFSET 22.049376 0.000000 0.000000
										CHANNELS 3 Xrotation Yrotation Zrotation
										JOINT LeftHand
										{
											OFFSET 23.009392 0.000000 0.000000
											CHANNELS 3 Xrotation Yrotation Zrotation
											End Site
											{
												OFFSET 0 0 0
											}
										}
									}
								}
							}
						}
						JOINT RightShoulder_virtual
						{
							OFFSET 0.000000 0.000000 0.000000
							CHANNELS 3 Xrotation Yrotation Zrotation
							JOINT RightShoulder
							{
								OFFSET -6.197800 13.665199 -4.064700
								CHANNELS 3 Xrotation Yrotation Zrotation
								JOINT RightArm
								{
									OFFSET -7.778100 -0.187103 -1.709300
									CHANNELS 3 Xrotation Yrotation Zrotation
									JOINT RightForeArm
									{
										OFFSET -22.049376 0.000000 0.000000
										CHANNELS 3 Xrotation Yrotation Zrotation
										JOINT RightHand
										{
											OFFSET -23.009392 0.000000 0.000000
											CHANNELS 3 Xrotation Yrotation Zrotation
											End Site
											{
												OFFSET 0 0 0
											}
										}
									}
								}
							}
						}
					}
				}
			}
		}
	}
}
MOTION
Frames: 12
Frame Time: 0.03333333
11.249214 28.189190 317.843750 0.000000 0.000000 0.000000 45.252022 -48.457457 79.103228 -67.129462 -9.050247 35.028591 33.725548 -13.576632 1.962516 -0.932166 2.959438 -36.342818 0.000000 0.000000 0.000000 45.252022 -48.457457 79.103228 -107.838080 -7.507948 -11.615672 131.621447 14.494392 -2.675726 45.931161 16.231352 43.263634 0.000000 0.000000 0.000000 45.252022 -48.457457 79.103228 0.000001 0.000002 0.000002 9.977913 -8.072600 -2.902148 20.581465 -10.516346 -0.144610 0.000000 0.000000 0.000000 20.581470 -10.516337 -0.144611 6.882639 9.770585 -6.782379 0.000000 0.000000 0.000000 20.581470 -10.516337 -0.144611 0.362247 -5.563733 -21.430629 0.286701 6.219480 -63.452034 31.648231 -6.430921 -10.299341 0.000000 0.000000 0.000000 20.581470 -10.516337 -0.144611 -0.050565 24.927846 12.864280 -31.840071 -0.829614 -5.819329 -19.939274 5.531939 -2.665293 0.000000 0.000000 0.000000 
11.373890 29.732887 323.050354 0.000000 0.000000 0.000000 47.359063 -47.539691 77.405421 -72.032370 -10.388972 37.626481 36.495876 -14.232568 -0.064358 2.827017 1.674088 -38.386824 0.000000 0.000000 0.000000 47.359063 -47.539691 77.405421 -107.362179 -5.514643 -15.329680 130.890221 18.341578 -2.461221 47.033253 17.021569 44.017735 0.000000 0.000000 0.000000 47.359063 -47.539691 77.405421 -0.000001 0.000001 0.000000 9.768914 -6.826459 -2.692314 20.001874 -8.523654 -0.281555 0.000000 0.000000 0.000000 20.001876 -8.523658 -0.281549 4.786781 10.382578 -5.045975 0.000000 0.000000 0.000000 20.001876 -8.523658 -0.281549 0.397091 -5.187133 -22.907254 -0.202609 5.720624 -61.837589 33.732962 -7.084500 -10.464592 0.000000 0.000000 0.000000 20.001876 -8.523658 -0.281549 -0.236745 25.773732 13.779214 -31.371431 -4.560775 -1.693865 -24.756767 7.161674 -2.452492 0.000000 0.000000 0.000000 
11.332741 31.226757 328.230225 0.000000 0.000000 0.000000 48.365444 -46.978096 75.534837 -78.650106 -12.179600 38.528684 44.061021 -14.234060 -2.065205 5.495391 0.567124 -34.491625 0.000000 0.000000 0.000000 48.365444 -46.978096 75.534837 -105.871450 -3.751328 -19.750503 129.360614 21.422946 -2.114751 48.717998 17.748480 43.948599 0.000000 0.000000 0.000000 48.365444 -46.978096 75.534837 -0.000001 0.000000 0.000000 9.470260 -5.694398 -2.786435 19.278007 -6.757571 -0.819779 0.000000 0.000000 0.000000 19.277989 -6.757578 -0.819795 2.631856 10.989361 -3.335743 0.000000 0.000000 0.000000 19.277989 -6.757578 -0.819795 0.465101 -4.608217 -24.755908 -0.485215 5.159803 -58.615379 35.989192 -7.811710 -10.600267 0.000000 0.000000 0.000000 19.277989 -6.757578 -0.819795 -0.396561 26.079974 14.675674 -30.053485 -9.716207 4.642511 -31.232522 11.814326 -0.462038 0.000000 0.000000 0.000000 
11.224911 32.529682 333.370544 0.000000 0.000000 0.000000 47.638780 -47.049878 73.110550 -85.538598 -13.319085 37.995202 53.227907 -14.267580 -4.014151 7.103037 -0.114601 -29.395946 0.000000 0.000000 0.000000 47.638780 -47.049878 73.110550 -103.031880 -1.695251 -24.839556 127.946778 23.784556 -1.764118 50.336257 18.405787 43.784610 0.000000 0.000000 0.000000 47.638780 -47.049878 73.110550 0.000000 -0.000001 0.000001 9.174384 -4.642292 -3.124439 18.588285 -5.258759 -1.680266 0.000000 0.000000 0.000000 18.588312 -5.258759 -1.680259 0.571271 11.532738 -1.744104 0.000000 0.000000 0.000000 18.588312 -5.258759 -1.680259 0.565330 -3.855092 -26.469872 -0.377989 4.639000 -53.992372 38.100458 -8.539139 -10.722979 0.000000 0.000000 0.000000 18.588312 -5.258759 -1.680259 -0.494404 25.605339 15.379851 -27.617745 -15.476801 13.095662 -37.951297 18.998076 2.816097 0.000000 0.000000 0.000000 
11.059058 33.636650 337.899323 0.000000 0.000000 0.000000 44.866884 -47.629306 69.397317 -92.207171 -13.296130 36.346725 61.985428 -15.309591 -5.481342 6.718482 -0.171999 -24.250331 0.000000 0.000000 0.000000 44.866884 -47.629306 69.397317 -98.804649 -0.546687 -30.414836 126.598062 24.354520 -1.524646 51.885867 18.870527 43.262336 0.000000 0.000000 0.000000 44.866884 -47.629306 69.397317 -0.000001 0.000000 -0.000001 8.949573 -3.708356 -3.521769 18.069539 -4.089482 -2.543622 0.000000 0.000000 0.000000 18.069551 -4.089491 -2.543612 -1.273848 11.977577 -0.348771 0.000000 0.000000 0.000000 18.069551 -4.089491 -2.543612 0.682213 -2.993235 -27.468062 0.233033 4.312529 -48.450066 39.748692 -9.175152 -10.853626 0.000000 0.000000 0.000000 18.069551 -4.089491 -2.543612 -0.497465 24.275648 15.686305 -23.816547 -20.840908 23.243812 -42.950180 27.846642 6.379462 0.000000 0.000000 0.000000 
10.712460 34.709343 342.316010 0.000000 0.000000 0.000000 40.113544 -48.162078 63.795777 -97.622050 -11.532843 34.459442 68.594640 -16.576123 -6.388184 7.317486 -0.250134 -19.710017 0.000000 0.000000 0.000000 40.113544 -48.162078 63.795777 -93.049648 -0.362643 -36.821526 125.105146 24.443055 -1.332013 52.917051 19.112674 42.780623 0.000000 0.000000 0.000000 40.113544 -48.162078 63.795777 -0.000001 -0.000001 -0.000000 8.783477 -2.951298 -3.836152 17.694618 -3.365479 -3.145577 0.000000 0.000000 0.000000 17.694653 -3.365494 -3.145560 -2.832838 12.312504 0.802443 0.000000 0.000000 0.000000 17.694653 -3.365494 -3.145560 0.789266 -2.112503 -27.293323 1.345522 4.329569 -42.629577 40.680419 -9.620140 -11.002401 0.000000 0.000000 0.000000 17.694653 -3.365494 -3.145560 -0.389787 22.237247 15.431320 -18.527875 -24.914544 34.383527 -44.443341 37.460985 9.095965 0.000000 0.000000 0.000000 
10.182220 35.762001 346.686005 0.000000 0.000000 0.000000 34.604675 -48.006674 57.083535 -102.262931 -8.543410 32.912093 73.777122 -17.100707 -6.720998 9.066257 -0.431500 -15.371440 0.000000 0.000000 0.000000 34.604675 -48.006674 57.083535 -86.692559 -1.677466 -43.426517 123.108586 24.545779 -1.128340 53.726678 19.169401 42.133470 0.000000 0.000000 0.000000 34.604675 -48.006674 57.083535 -0.000001 -0.000003 -0.000002 8.605360 -2.400920 -4.002412 17.311693 -3.101776 -3.473911 0.000000 0.000000 0.000000 17.311710 -3.101799 -3.473896 -4.090718 12.544762 1.699332 0.000000 0.000000 0.000000 17.311710 -3.101799 -3.473896 0.861423 -1.305028 -25.783810 2.804940 4.771298 -37.156099 40.677175 -9.770745 -11.170013 0.000000 0.000000 0.000000 17.311710 -3.101799 -3.473896 -0.185206 19.827214 14.579052 -11.911479 -27.133569 45.621644 -41.763933 47.160650 10.336982 0.000000 0.000000 0.000000 
9.544926 36.721420 351.013367 0.000000 0.000000 0.000000 30.254320 -47.288227 51.139187 -106.287395 -5.090814 32.284815 78.465036 -16.412741 -6.415186 10.792399 -0.527278 -11.379388 0.000000 0.000000 0.000000 30.254320 -47.288227 51.139187 -80.423661 -3.504995 -48.701448 120.596661 26.038515 -0.828201 54.143774 19.364584 42.149716 0.000000 0.000000 0.000000 30.254320 -47.288227 51.139187 0.000001 0.000000 0.000000 8.371510 -2.019136 -4.030575 16.825901 -3.131622 -3.603562 0.000000 0.000000 0.000000 16.825939 -3.131632 -3.603551 -5.078814 12.692641 2.365371 0.000000 0.000000 0.000000 16.825939 -3.131632 -3.603551 0.885544 -0.643627 -23.144161 4.292673 5.620094 -32.460020 39.475003 -9.518150 -11.352667 0.000000 0.000000 0.000000 16.825939 -3.131632 -3.603551 0.072130 17.473827 13.268810 -4.522878 -27.357264 56.008425 -36.186598 56.532892 10.728379 0.000000 0.000000 0.000000 
8.680982 37.737808 355.367218 0.000000 0.000000 0.000000 26.561764 -46.274535 45.089661 -109.938397 -1.187270 32.917106 82.984681 -15.680318 -5.702971 11.790053 -0.419053 -6.638883 0.000000 0.000000 0.000000 26.561764 -46.274535 45.089661 -73.839017 -7.080650 -52.491308 116.942264 28.084403 -0.386804 54.455831 19.536715 42.212635 0.000000 0.000000 0.000000 26.561764 -46.274535 45.089661 0.000001 -0.000001 0.000002 8.106466 -1.736910 -3.969840 16.282459 -3.299761 -3.607007 0.000000 0.000000 0.000000 16.282467 -3.299761 -3.606993 -5.852876 12.777777 2.843555 0.000000 0.000000 0.000000 16.282467 -3.299761 -3.606993 0.863700 -0.172087 -19.882467 5.361911 6.764661 -28.660956 36.752773 -8.757443 -11.522917 0.000000 0.000000 0.000000 16.282467 -3.299761 -3.606993 0.324104 15.567869 11.786901 2.732639 -25.835272 64.713481 -31.386092 65.326395 12.810879 0.000000 0.000000 0.000000 
7.579704 38.834320 359.766235 0.000000 0.000000 0.000000 23.762054 -45.195123 39.070939 -112.939323 2.043276 34.657620 87.477074 -14.945108 -5.058310 11.457417 -0.201064 -1.519017 0.000000 0.000000 0.000000 23.762054 -45.195123 39.070939 -66.752962 -11.886389 -53.714431 111.921952 31.443493 0.343755 54.194262 19.811536 43.011617 0.000000 0.000000 0.000000 23.762054 -45.195123 39.070939 0.000000 0.000000 0.000000 7.828288 -1.542938 -3.811446 15.718027 -3.537342 -3.466818 0.000000 0.000000 0.000000 15.718029 -3.537348 -3.466820 -6.470778 12.819423 3.179480 0.000000 0.000000 0.000000 15.718029 -3.537348 -3.466820 0.808018 0.090967 -16.634156 5.538185 8.016231 -25.562994 32.271626 -7.435353 -11.581125 0.000000 0.000000 0.000000 15.718029 -3.537348 -3.466820 0.519683 14.352720 10.468598 8.832708 -23.077812 71.207577 -33.496129 73.254025 21.439103 0.000000 0.000000 0.000000 
6.244793 40.069702 364.200897 0.000000 0.000000 0.000000 21.991082 -44.021901 33.323970 -114.638851 3.369804 36.725319 91.700679 -14.177698 -5.393624 9.478620 -0.130955 3.222230 0.000000 0.000000 0.000000 21.991082 -44.021901 33.323970 -59.054949 -17.120718 -51.356271 105.282004 36.254972 1.560907 52.902018 20.188554 45.031212 0.000000 0.000000 0.000000 21.991082 -44.021901 33.323970 0.000001 -0.000001 0.000001 7.519639 -1.486898 -3.623912 15.098548 -3.805879 -3.272376 0.000000 0.000000 0.000000 15.098565 -3.805893 -3.272365 -6.976555 12.831010 3.409342 0.000000 0.000000 0.000000 15.098565 -3.805893 -3.272365 0.735572 0.141911 -13.940975 4.467879 9.113515 -22.770439 26.106153 -5.645147 -11.350591 0.000000 0.000000 0.000000 15.098565 -3.805893 -3.272365 0.631941 13.868498 9.572995 12.953063 -19.675021 75.374682 -51.222386 79.607077 44.251191 0.000000 0.000000 0.000000 
5.171732 41.595184 368.641754 0.000000 0.000000 0.000000 21.624722 -42.647647 28.653337 -114.630505 3.008418 38.219867 94.958850 -13.269797 -7.482132 6.122909 -0.416165 7.312230 0.000000 0.000000 0.000000 21.624722 -42.647647 28.653337 -51.572050 -20.832757 -45.306298 97.391920 41.529357 3.277220 50.660968 20.694117 48.414321 0.000000 0.000000 0.000000 21.624722 -42.647647 28.653337 0.000000 0.000000 0.000000 7.130142 -1.582819 -3.554972 14.320495 -4.074153 -3.257624 0.000000 0.000000 0.000000 14.320490 -4.074141 -3.257616 -7.395293 12.819065 3.555267 0.000000 0.000000 0.000000 14.320490 -4.074141 -3.257616 0.664661 -0.017329 -12.076658 2.059102 9.720486 -19.893720 18.804914 -3.695782 -10.718961 0.000000 0.000000 0.000000 14.320490 -4.074141 -3.257616 0.663300 13.967861 9.187616 14.716128 -16.126439 77.502320 -91.219840 82.942006 87.348885 0.000000 0.000000 0.000000 
